HIERARCHY
ROOT root
{
	OFFSET 0.000000 0.000000 0.000000
	CHANNELS 6 Xposition Yposition Zposition Zrotation Yrotation Xrotation
	JOINT lhip
	{
		OFFSET 0.058581 -0.082280 -0.017664
		CHANNELS 3 Zrotation Yrotation Xrotation
		JOINT lknee
		{
			OFFSET 0.043451 -0.386469 0.008037
			CHANNELS 3 Zrotation Yrotation Xrotation
			JOINT lankle
			{
				OFFSET -0.014790 -0.426874 -0.037428
				CHANNELS 3 Zrotation Yrotation Xrotation
				JOINT ltoe
				{
					OFFSET 0.041054 -0.060286 0.122042
					CHANNELS 3 Zrotation Yrotation Xrotation
					End Site
					{
						OFFSET 0.000000 0.000000 0.000000
					}
				}
			}
		}
	}
	JOINT rhip
	{
		OFFSET -0.060310 -0.090513 -0.013543
		CHANNELS 3 Zrotation Yrotation Xrotation
		JOINT rknee
		{
			OFFSET -0.043257 -0.383688 -0.004843
			CHANNELS 3 Zrotation Yrotation Xrotation
			JOINT rankle
			{
				OFFSET 0.019056 -0.420046 -0.034562
				CHANNELS 3 Zrotation Yrotation Xrotation
				JOINT rtoe
				{
					OFFSET -0.034840 -0.062106 0.130323
					CHANNELS 3 Zrotation Yrotation Xrotation
					End Site
					{
						OFFSET 0.000000 0.000000 0.000000
					}
				}
			}
		}
	}
	JOINT lowerback
	{
		OFFSET 0.004439 0.124404 -0.038385
		CHANNELS 3 Zrotation Yrotation Xrotation
		JOINT upperback
		{
			OFFSET 0.004488 0.137956 0.026820
			CHANNELS 3 Zrotation Yrotation Xrotation
			JOINT chest
			{
				OFFSET -0.002265 0.056032 0.002855
				CHANNELS 3 Zrotation Yrotation Xrotation
				JOINT lowerneck
				{
					OFFSET -0.013390 0.211636 -0.033468
					CHANNELS 3 Zrotation Yrotation Xrotation
					JOINT upperneck
					{
						OFFSET 0.010113 0.088937 0.050410
						CHANNELS 3 Zrotation Yrotation Xrotation
						End Site
						{
							OFFSET 0.000000 0.000000 0.000000
						}
					}
				}
				JOINT lclavicle
				{
					OFFSET 0.071702 0.114000 -0.018898
					CHANNELS 3 Zrotation Yrotation Xrotation
					JOINT lshoulder
					{
						OFFSET 0.122921 0.045205 -0.019046
						CHANNELS 3 Zrotation Yrotation Xrotation
						JOINT lelbow
						{
							OFFSET 0.255332 -0.015649 -0.022946
							CHANNELS 3 Zrotation Yrotation Xrotation
							JOINT lwrist
							{
								OFFSET 0.265709 0.012698 -0.007375
								CHANNELS 3 Zrotation Yrotation Xrotation
								End Site
								{
									OFFSET 0.000000 0.000000 0.000000
								}
							}
						}
					}
				}
				JOINT rclavicle
				{
					OFFSET -0.082954 0.112472 -0.023707
					CHANNELS 3 Zrotation Yrotation Xrotation
					JOINT rshoulder
					{
						OFFSET -0.113228 0.046853 -0.008472
						CHANNELS 3 Zrotation Yrotation Xrotation
						JOINT relbow
						{
							OFFSET -0.260127 -0.014369 -0.031269
							CHANNELS 3 Zrotation Yrotation Xrotation
							JOINT rwrist
							{
								OFFSET -0.269108 0.006794 -0.006027
								CHANNELS 3 Zrotation Yrotation Xrotation
								End Site
								{
									OFFSET 0.000000 0.000000 0.000000
								}
							}
						}
					}
				}
			}
		}
	}
}
MOTION
Frames: 10
Frame Time: 0.033333
0.357154 0.177884 0.997504 87.671074 0.146996 91.855937 7.759306 4.916658 4.609360 -3.584605 -1.019269 -4.580699 -1.468114 8.592059 -3.622305 0.000000 -0.000000 0.000000 -7.798258 -2.895981 -0.625277 2.353097 -1.511627 0.826030 5.611888 -4.654815 -5.770395 0.000000 -0.000000 0.000000 -3.637637 2.241297 -6.391794 2.536366 -1.849593 10.280209 0.930349 0.448984 -5.023797 3.458222 4.113506 1.893056 5.267844 -4.287435 -7.133388 -22.169940 -2.700120 -0.086623 -58.709818 -6.433738 18.067266 0.088753 -15.738157 11.904385 -12.449034 -12.691573 10.885601 25.648791 5.221614 6.493721 55.779037 3.270808 15.176438 -6.986166 23.136796 4.096955 6.790488 8.710678 1.691373 
0.357719 0.177991 0.997355 87.722318 0.174415 91.732192 7.793029 4.856029 4.800468 -3.575604 -1.005405 -4.651278 -1.474594 8.524839 -3.610105 0.000000 -0.000000 0.000000 -7.787017 -2.896612 -0.429070 2.354591 -1.475838 0.805282 5.617183 -4.703601 -5.799993 0.000000 -0.000000 0.000000 -3.508310 2.144200 -6.490230 2.468635 -1.802957 10.113067 0.910745 0.464289 -4.663548 3.446215 4.072799 1.971509 5.213956 -4.269979 -6.669921 -22.042604 -2.849719 -0.077367 -58.832834 -6.564112 17.988778 -0.173076 -16.279796 12.498500 -12.659302 -12.730981 10.798338 25.391995 5.246885 6.721322 55.961603 3.568911 15.129865 -7.231021 23.256766 3.986880 7.027089 8.704356 1.585955 
0.358227 0.178085 0.997328 87.785788 0.154632 91.614062 7.789757 4.872705 4.936817 -3.600920 -1.017167 -4.659345 -1.485423 8.433791 -3.624511 0.000000 -0.000000 0.000000 -7.821861 -2.975058 -0.269197 2.337899 -1.516838 0.817279 5.662002 -4.606838 -5.808916 0.000000 -0.000000 0.000000 -3.555064 2.113186 -6.462630 2.517733 -1.868654 10.058627 0.922754 0.392488 -4.479156 3.387677 4.098229 1.919222 5.156807 -4.166197 -6.637684 -22.047646 -2.632128 -0.235408 -58.814580 -6.624041 18.035082 -0.496972 -17.283248 13.031971 -12.484048 -12.847226 10.676006 25.485417 4.611268 6.131292 55.511001 3.726468 14.939555 -6.897381 23.780689 4.631686 7.332376 8.706897 1.853237 
0.358458 0.178431 0.997403 87.852974 0.110694 91.467690 7.709518 4.868784 5.073108 -3.560897 -1.070269 -4.630821 -1.597243 8.404284 -3.660273 0.000000 -0.000000 0.000000 -7.867045 -2.953719 -0.143916 2.276488 -1.544575 0.849929 5.657237 -4.634058 -5.861174 0.000000 -0.000000 0.000000 -3.529939 2.050063 -6.422257 2.421273 -1.898292 10.229793 0.902281 0.475102 -4.407765 3.413522 4.238435 1.781103 5.129405 -4.223510 -7.021218 -21.779011 -2.743503 -0.409890 -59.197072 -7.005633 18.035472 -0.734803 -17.982828 13.397472 -11.643891 -13.422453 10.836155 25.165339 4.968181 6.258800 55.695143 3.692266 14.795163 -6.939568 24.436928 3.904022 6.450438 9.217393 1.443476 
0.358532 0.178539 0.997353 87.880148 0.091364 91.433030 7.695028 4.857516 5.110547 -3.574785 -1.074620 -4.632983 -1.578914 8.371430 -3.663376 0.000000 -0.000000 0.000000 -7.898281 -2.981850 -0.112476 2.277385 -1.562857 0.876874 5.664669 -4.610584 -5.886616 0.000000 -0.000000 0.000000 -3.566443 2.023466 -6.386961 2.422552 -1.913217 10.167549 0.905545 0.427731 -4.336411 3.393268 4.254558 1.703481 5.101706 -4.175336 -6.909662 -21.793483 -2.688595 -0.355074 -59.183511 -7.063913 17.980703 -0.843096 -18.416133 13.686103 -11.440686 -13.469313 10.716389 25.218529 4.704821 6.181211 55.557131 3.885956 14.664763 -6.824946 24.690748 4.175953 6.485308 9.239852 1.488320 
0.358555 0.178637 0.997325 87.878006 0.097416 91.433592 7.702522 4.842210 5.115635 -3.591433 -1.017282 -4.650650 -1.537937 8.348447 -3.664415 0.000000 -0.000000 0.000000 -7.898222 -3.002550 -0.131091 2.268977 -1.578111 0.906901 5.690641 -4.549317 -5.903756 0.000000 -0.000000 0.000000 -3.598282 1.985983 -6.391946 2.410601 -1.945651 10.101094 0.908607 0.420039 -4.313093 3.395227 4.260752 1.700978 5.060185 -4.071256 -6.476584 -21.797101 -2.734121 -0.170415 -59.202864 -7.178685 17.934072 -1.090661 -18.977840 13.959574 -11.197530 -13.500846 10.372279 25.214295 4.558476 6.228968 55.458065 4.126468 14.542285 -6.684652 25.008605 4.365363 6.452148 9.216976 1.309364 
0.358642 0.178832 0.997393 87.882764 0.088547 91.463617 7.679463 4.826461 5.118010 -3.573021 -0.964471 -4.701922 -1.620465 8.339506 -3.691311 0.000000 -0.000000 0.000000 -7.910216 -2.986908 -0.137024 2.246652 -1.657372 0.866949 5.706034 -4.504826 -5.877178 0.000000 -0.000000 0.000000 -3.619868 1.960941 -6.547027 2.366612 -1.985272 10.417721 0.863763 0.515401 -4.567883 3.440342 4.157697 2.076060 5.184201 -4.219553 -6.401370 -21.809468 -3.115835 -0.012771 -59.204941 -7.093331 18.139941 -1.274153 -19.386577 13.613019 -11.144133 -13.500571 10.350353 25.061526 5.348941 6.636676 55.721714 3.840857 14.688624 -7.005034 25.093142 3.486951 6.105647 9.392565 1.050788 
0.358671 0.179022 0.997509 87.824702 0.080595 91.482695 7.657793 4.809462 5.137140 -3.578996 -0.880544 -4.729940 -1.546068 8.292103 -3.657405 0.000000 -0.000000 0.000000 -7.942299 -2.988045 -0.141074 2.247213 -1.741819 0.880837 5.726566 -4.388937 -5.827070 0.000000 -0.000000 0.000000 -3.660854 1.945142 -6.604770 2.362051 -1.990353 10.567581 0.824188 0.476033 -4.623650 3.416525 4.131146 2.359054 5.261857 -4.152373 -6.564277 -21.930969 -3.233676 0.064097 -59.103326 -6.917414 18.292347 -1.358704 -19.987898 13.451041 -11.905817 -13.437506 10.106897 25.066063 5.492081 6.589456 55.793067 3.916426 14.756445 -7.139119 25.186177 3.331797 6.532767 9.272116 1.073690 
0.358630 0.179025 0.997456 87.757922 0.099577 91.483234 7.690461 4.832436 5.154760 -3.613748 -0.817165 -4.755632 -1.463892 8.243113 -3.654197 0.000000 -0.000000 0.000000 -7.933209 -3.013984 -0.186832 2.250210 -1.734569 0.936575 5.752019 -4.330365 -5.834704 0.000000 -0.000000 0.000000 -3.740642 1.930321 -6.544616 2.406553 -2.034412 10.468838 0.850681 0.435109 -4.454265 3.353785 4.133793 2.390164 5.240616 -4.060363 -6.743916 -22.052340 -3.246326 -0.016559 -59.105561 -7.081004 18.357510 -1.419440 -20.021986 13.707696 -11.867072 -13.337412 9.992765 25.280720 5.146999 6.277091 55.568647 4.252656 14.711553 -7.043588 25.269808 3.794705 6.762569 9.112002 1.185010 
0.358443 0.178932 0.997430 87.718985 0.114923 91.519933 7.714737 4.843619 5.105024 -3.638415 -0.760025 -4.777344 -1.438278 8.231169 -3.646065 0.000000 -0.000000 0.000000 -7.910062 -3.021416 -0.265491 2.248708 -1.745054 0.962290 5.763440 -4.302559 -5.822185 0.000000 -0.000000 0.000000 -3.794635 1.893426 -6.409223 2.381403 -2.061912 10.407819 0.858299 0.470194 -4.453264 3.326520 4.188566 2.205105 5.212488 -4.090096 -6.716893 -22.021207 -3.299913 -0.046515 -59.190009 -7.167998 18.393831 -1.445024 -20.052833 13.807984 -11.704579 -13.377298 9.984298 25.352317 5.158096 6.338862 55.551337 4.464974 14.681716 -7.004905 25.284277 3.813771 6.695768 9.101619 1.160474 
